<?xml version="1.0" encoding="utf-8"?>
<!-- Generator: Adobe Illustrator 27.0.0, SVG Export Plug-In . SVG Version: 6.00 Build 0)  -->
<svg version="1.1" id="Layer_1" xmlns="http://www.w3.org/2000/svg" xmlns:xlink="http://www.w3.org/1999/xlink" x="0px" y="0px"
	 viewBox="0 0 4251.97 1452.26" style="enable-background:new 0 0 4251.97 1452.26;" xml:space="preserve">
<style type="text/css">
	.st0{fill:#0048BE;}
</style>
<g>
	<g>
		<path d="M3535.17,1138.05H673.09c-216.72,0-393.04-176.32-393.04-393.04s176.32-393.05,393.04-393.05h2862.07
			c216.72,0,393.05,176.32,393.05,393.04S3751.89,1138.05,3535.17,1138.05z M673.09,363.81c-210.19,0-381.19,171-381.19,381.19
			c0,210.19,171,381.19,381.19,381.19h2862.07c210.2,0,381.19-171,381.19-381.19c0-210.19-171-381.19-381.19-381.19H673.09z"/>
	</g>
	<g>
		<g>
			<path d="M447.9,716.22l-2.62,3.05v-42.19h-52.83v236.86h56.52V760.28l0.47-0.44c13.85-13.05,41.35-40.46,85.47-36.26l7.08-46.19
				c-5.64-2.52-14.22-4-23.26-4C488.29,673.39,463.73,697.84,447.9,716.22z"/>
			<path d="M805.42,797.35c0,78.49,34.43,123.5,94.45,123.5c25.33,0,51.02-10.27,70.48-28.2l2.5-2.31v23.59h52.83V581.61h-56.52
				v107.76l-2.28-1.44c-12.88-8.11-34.09-17.76-61.94-17.76C841.7,670.16,805.42,716.52,805.42,797.35z M968.48,728.77l0.68,0.44
				v125.02l-0.42,0.43c-11.39,11.81-31.1,24.44-52.27,24.44c-35.14,0-52.22-27.04-52.22-82.66c0-56.08,17.57-84.51,52.22-84.51
				C939.78,711.92,956.52,720.93,968.48,728.77z"/>
			<path d="M1765.82,708.05l-1.72,1.6l-0.7-2.25c-7.76-24.71-27.45-37.24-58.54-37.24c-23.59,0-51.66,13.3-75.08,35.58l-2.52,2.39
				v-31.04h-52.83v236.86h56.51V749.68l0.45-0.44c15.63-15.11,39.69-30.39,55.46-30.39c21.2,0,27.33,12.44,27.33,55.45v139.65h56.51
				V749.66l0.47-0.44c15.53-14.63,39.5-30.38,55.45-30.38c23.52,0,27.32,16.34,27.32,55.45v139.65h56.52V754
				c0-57.98-20.16-83.84-65.38-83.84C1819.44,670.16,1793.52,682.55,1765.82,708.05z"/>
			<path d="M1955.52,696.6l27.26,37.22c17.9-15.33,37.24-21.9,64.32-21.9c33.57,0,48.54,11.56,48.54,37.46v11.05l-1.35,0.12
				c-3.9,0.36-10.6,0.92-17.87,1.53c-11.58,0.97-24.71,2.06-30.09,2.62c-69.25,6.59-100.12,31.46-100.12,80.62
				c0,45.17,29.8,75.53,74.14,75.53c33.79,0,57.24-16.03,76.57-31.04l2.41-1.88v26h52.83V753.54c0-58.44-30.45-83.38-101.82-83.38
				C2008.56,670.16,1977.52,678.82,1955.52,696.6z M2095.65,852.06l-0.59,0.44c-16.27,12.21-35.33,25.22-55.79,25.22
				c-22.92,0-36.08-12.14-36.08-33.32c0-26.8,17.36-39.52,59.91-43.92c7.34-0.92,25.25-2.77,30.94-3.24l1.61-0.13V852.06z"/>
			<path d="M2234.4,677.08h-58.12l90.74,229.13l-4.85,11.63c-12.64,30.15-26,42.44-46.12,42.44c-8.72,0-24.21-2.32-38.22-7.37
				l-12.51,42.72c16.33,5.03,37.57,7.34,50.73,7.34c47.75,0,76.17-20.55,95.01-68.69l100.21-257.18h-55.83l-60.99,161.43
				L2234.4,677.08z"/>
			<path d="M2427.2,795.97c0,82.87,38.6,124.89,114.73,124.89c75.82,0,114.27-42.02,114.27-124.89
				c0-83.48-38.45-125.81-114.27-125.81C2465.8,670.16,2427.2,712.49,2427.2,795.97z M2597.39,795.97
				c0,54.07-18.14,80.37-55.46,80.37c-38.15,0-55.91-25.53-55.91-80.37c0-55.45,17.76-81.27,55.91-81.27
				C2579.76,714.69,2597.39,740.52,2597.39,795.97z"/>
			<path d="M2906.95,854.65c-23.52,0-34.01,9.92-34.01,32.17c0,21.96,10.81,32.19,34.01,32.19c24.17,0,34.95-9.92,34.95-32.19
				C2941.89,864.58,2931.12,854.65,2906.95,854.65z"/>
			<path d="M3145.24,851.04l40.82,25.18c-19.85,30.02-48.9,44.63-88.78,44.63c-76.12,0-114.73-42.33-114.73-125.81
				c0-82.87,38.6-124.89,114.73-124.89c31.81,0,57.11,7.21,81.8,23.33l-28.62,38.15c-16.24-11.4-32.44-16.96-49.48-16.96
				c-53.43,0-59.61,45.86-59.61,80.37c0,37.84,6.47,81.27,56.83,81.27C3118.53,876.32,3133.93,868.05,3145.24,851.04z"/>
			<path d="M3206.74,795.97c0,82.87,38.6,124.89,114.73,124.89c75.82,0,114.27-42.02,114.27-124.89
				c0-83.48-38.45-125.81-114.27-125.81C3245.34,670.16,3206.74,712.49,3206.74,795.97z M3376.93,795.97
				c0,54.07-18.14,80.37-55.46,80.37c-38.15,0-55.91-25.53-55.91-80.37c0-55.45,17.76-81.27,55.91-81.27
				C3359.3,714.69,3376.93,740.52,3376.93,795.97z"/>
			<path d="M3750.42,670.16c-25.6,0-51.52,12.39-79.24,37.89l-1.74,1.6l-0.7-2.25c-7.76-24.71-27.46-37.24-58.54-37.24
				c-23.6,0-51.66,13.3-75.08,35.58l-2.52,2.39v-31.04h-52.83v236.86h56.52V749.68l0.45-0.44c15.61-15.11,39.68-30.39,55.46-30.39
				c21.19,0,27.32,12.44,27.32,55.45v139.65h56.52V749.66l0.47-0.44c15.52-14.63,39.49-30.38,55.45-30.38
				c23.52,0,27.32,16.34,27.32,55.45v139.65h56.51V754C3815.81,696.02,3795.64,670.16,3750.42,670.16z"/>
			<path d="M773.92,780.29c0-73.07-34.26-110.13-101.82-110.13c-75.34,0-111.97,41.46-111.97,126.73
				c0,82.26,38.14,123.97,113.35,123.97c33.65,0,61.19-7.77,84.15-23.76l10.64-8.76l-38.82-29.82
				c-9.21,7.08-27.24,17.82-51.83,17.82c-35.32,0-56.71-22.03-58.69-60.45l-0.08-1.57h155.06V780.29z M719.71,773.94H618.82
				l0.13-1.61c3.28-41.53,20.31-60.88,53.6-60.88c31.73,0,47.16,19.95,47.16,60.99V773.94z"/>
			<path d="M2756.15,716.22l-2.62,3.05v-42.19h-52.83v236.86h56.52V760.28l0.47-0.44c13.85-13.05,41.35-40.46,85.47-36.26
				l7.08-46.19c-5.64-2.52-14.22-4-23.26-4C2796.54,673.39,2771.98,697.84,2756.15,716.22z"/>
		</g>
		<polygon class="st0" points="1364.57,739.61 1538.67,484.22 1421.1,484.22 1305.79,653.46 1190.36,484.22 1072.8,484.22 
			1246.89,739.61 1065.45,1005.79 1183.13,1005.79 1305.79,825.89 1428.33,1005.79 1546.01,1005.79 		"/>
	</g>
</g>
</svg>
