<svg width="4252" height="1453" viewBox="0 0 4252 1453" fill="none" xmlns="http://www.w3.org/2000/svg">
<path d="M3535.17 1138.05H673.09C456.37 1138.05 280.05 961.73 280.05 745.01C280.05 528.29 456.37 351.96 673.09 351.96H3535.16C3751.88 351.96 3928.21 528.28 3928.21 745C3928.21 961.72 3751.89 1138.05 3535.17 1138.05ZM673.09 363.81C462.9 363.81 291.9 534.81 291.9 745C291.9 955.19 462.9 1126.19 673.09 1126.19H3535.16C3745.36 1126.19 3916.35 955.19 3916.35 745C3916.35 534.81 3745.35 363.81 3535.16 363.81H673.09Z" fill="white"/>
<path d="M447.9 716.22L445.28 719.27V677.08H392.45V913.94H448.97V760.28L449.44 759.84C463.29 746.79 490.79 719.38 534.91 723.58L541.99 677.39C536.35 674.87 527.77 673.39 518.73 673.39C488.29 673.39 463.73 697.84 447.9 716.22Z" fill="white"/>
<path d="M805.42 797.35C805.42 875.84 839.85 920.85 899.87 920.85C925.2 920.85 950.89 910.58 970.35 892.65L972.85 890.34V913.93H1025.68V581.61H969.16V689.37L966.88 687.93C954 679.82 932.79 670.17 904.94 670.17C841.7 670.16 805.42 716.52 805.42 797.35ZM968.48 728.77L969.16 729.21V854.23L968.74 854.66C957.35 866.47 937.64 879.1 916.47 879.1C881.33 879.1 864.25 852.06 864.25 796.44C864.25 740.36 881.82 711.93 916.47 711.93C939.78 711.92 956.52 720.93 968.48 728.77Z" fill="white"/>
<path d="M1765.82 708.05L1764.1 709.65L1763.4 707.4C1755.64 682.69 1735.95 670.16 1704.86 670.16C1681.27 670.16 1653.2 683.46 1629.78 705.74L1627.26 708.13V677.09H1574.43V913.95H1630.94V749.68L1631.39 749.24C1647.02 734.13 1671.08 718.85 1686.85 718.85C1708.05 718.85 1714.18 731.29 1714.18 774.3V913.95H1770.69V749.66L1771.16 749.22C1786.69 734.59 1810.66 718.84 1826.61 718.84C1850.13 718.84 1853.93 735.18 1853.93 774.29V913.94H1910.45V754C1910.45 696.02 1890.29 670.16 1845.07 670.16C1819.44 670.16 1793.52 682.55 1765.82 708.05Z" fill="white"/>
<path d="M1955.52 696.6L1982.78 733.82C2000.68 718.49 2020.02 711.92 2047.1 711.92C2080.67 711.92 2095.64 723.48 2095.64 749.38V760.43L2094.29 760.55C2090.39 760.91 2083.69 761.47 2076.42 762.08C2064.84 763.05 2051.71 764.14 2046.33 764.7C1977.08 771.29 1946.21 796.16 1946.21 845.32C1946.21 890.49 1976.01 920.85 2020.35 920.85C2054.14 920.85 2077.59 904.82 2096.92 889.81L2099.33 887.93V913.93H2152.16V753.54C2152.16 695.1 2121.71 670.16 2050.34 670.16C2008.56 670.16 1977.52 678.82 1955.52 696.6ZM2095.65 852.06L2095.06 852.5C2078.79 864.71 2059.73 877.72 2039.27 877.72C2016.35 877.72 2003.19 865.58 2003.19 844.4C2003.19 817.6 2020.55 804.88 2063.1 800.48C2070.44 799.56 2088.35 797.71 2094.04 797.24L2095.65 797.11V852.06Z" fill="white"/>
<path d="M2234.4 677.08H2176.28L2267.02 906.21L2262.17 917.84C2249.53 947.99 2236.17 960.28 2216.05 960.28C2207.33 960.28 2191.84 957.96 2177.83 952.91L2165.32 995.63C2181.65 1000.66 2202.89 1002.97 2216.05 1002.97C2263.8 1002.97 2292.22 982.42 2311.06 934.28L2411.27 677.1H2355.44L2294.45 838.53L2234.4 677.08Z" fill="white"/>
<path d="M2427.2 795.97C2427.2 878.84 2465.8 920.86 2541.93 920.86C2617.75 920.86 2656.2 878.84 2656.2 795.97C2656.2 712.49 2617.75 670.16 2541.93 670.16C2465.8 670.16 2427.2 712.49 2427.2 795.97ZM2597.39 795.97C2597.39 850.04 2579.25 876.34 2541.93 876.34C2503.78 876.34 2486.02 850.81 2486.02 795.97C2486.02 740.52 2503.78 714.7 2541.93 714.7C2579.76 714.69 2597.39 740.52 2597.39 795.97Z" fill="white"/>
<path d="M2906.95 854.65C2883.43 854.65 2872.94 864.57 2872.94 886.82C2872.94 908.78 2883.75 919.01 2906.95 919.01C2931.12 919.01 2941.9 909.09 2941.9 886.82C2941.89 864.58 2931.12 854.65 2906.95 854.65Z" fill="white"/>
<path d="M3145.24 851.04L3186.06 876.22C3166.21 906.24 3137.16 920.85 3097.28 920.85C3021.16 920.85 2982.55 878.52 2982.55 795.04C2982.55 712.17 3021.15 670.15 3097.28 670.15C3129.09 670.15 3154.39 677.36 3179.08 693.48L3150.46 731.63C3134.22 720.23 3118.02 714.67 3100.98 714.67C3047.55 714.67 3041.37 760.53 3041.37 795.04C3041.37 832.88 3047.84 876.31 3098.2 876.31C3118.53 876.32 3133.93 868.05 3145.24 851.04Z" fill="white"/>
<path d="M3206.74 795.97C3206.74 878.84 3245.34 920.86 3321.47 920.86C3397.29 920.86 3435.74 878.84 3435.74 795.97C3435.74 712.49 3397.29 670.16 3321.47 670.16C3245.34 670.16 3206.74 712.49 3206.74 795.97ZM3376.93 795.97C3376.93 850.04 3358.79 876.34 3321.47 876.34C3283.32 876.34 3265.56 850.81 3265.56 795.97C3265.56 740.52 3283.32 714.7 3321.47 714.7C3359.3 714.69 3376.93 740.52 3376.93 795.97Z" fill="white"/>
<path d="M3750.42 670.16C3724.82 670.16 3698.9 682.55 3671.18 708.05L3669.44 709.65L3668.74 707.4C3660.98 682.69 3641.28 670.16 3610.2 670.16C3586.6 670.16 3558.54 683.46 3535.12 705.74L3532.6 708.13V677.09H3479.77V913.95H3536.29V749.68L3536.74 749.24C3552.35 734.13 3576.42 718.85 3592.2 718.85C3613.39 718.85 3619.52 731.29 3619.52 774.3V913.95H3676.04V749.66L3676.51 749.22C3692.03 734.59 3716 718.84 3731.96 718.84C3755.48 718.84 3759.28 735.18 3759.28 774.29V913.94H3815.79V754C3815.81 696.02 3795.64 670.16 3750.42 670.16Z" fill="white"/>
<path d="M773.92 780.29C773.92 707.22 739.66 670.16 672.1 670.16C596.76 670.16 560.13 711.62 560.13 796.89C560.13 879.15 598.27 920.86 673.48 920.86C707.13 920.86 734.67 913.09 757.63 897.1L768.27 888.34L729.45 858.52C720.24 865.6 702.21 876.34 677.62 876.34C642.3 876.34 620.91 854.31 618.93 815.89L618.85 814.32H773.91V780.29H773.92ZM719.71 773.94H618.82L618.95 772.33C622.23 730.8 639.26 711.45 672.55 711.45C704.28 711.45 719.71 731.4 719.71 772.44V773.94Z" fill="white"/>
<path d="M2756.15 716.22L2753.53 719.27V677.08H2700.7V913.94H2757.22V760.28L2757.69 759.84C2771.54 746.79 2799.04 719.38 2843.16 723.58L2850.24 677.39C2844.6 674.87 2836.02 673.39 2826.98 673.39C2796.54 673.39 2771.98 697.84 2756.15 716.22Z" fill="white"/>
<path d="M1364.57 739.61L1538.67 484.22H1421.1L1305.79 653.46L1190.36 484.22H1072.8L1246.89 739.61L1065.45 1005.79H1183.13L1305.79 825.89L1428.33 1005.79H1546.01L1364.57 739.61Z" fill="#0048BE"/>
</svg>
